<svg version="1" xmlns="http://www.w3.org/2000/svg" width="298" height="345" viewBox="0 0 298.001 345.097" enable-background="new 0 0 298.001 345.097"><path fill="#dedede" d="M293.057 157.98c-5.442-20.657-15.198-39.563-28.273-55.688l8.567-8.563c6.074-6.077 6.074-15.928 0-21.999-3.334-3.34-7.78-4.656-12.129-4.333-3.596.254-7.146 1.596-9.866 4.333l-8.563 8.56c-9.083-7.354-19.081-13.552-29.734-18.627-9.617-4.558-19.751-8.195-30.338-10.669l-.311-.038c-4.587-1.065-9.204-1.985-13.962-2.613v-9.439h6.879c10.737 0 19.446-8.709 19.446-19.474 0-10.724-8.709-19.43-19.446-19.43h-53.831999999999994c-1.713 0-3.356.288-4.96.697l-.02.029c-8.326 2.202-14.463 9.715-14.463 18.704 0 10.765 8.709 19.474 19.442 19.474h8.062v9.439c-50.086 6.533-92.219 37.996-113.856 81.448-4.32 8.658-7.893 17.745-10.454 27.238-3.4 12.456-5.246 25.526-5.246 39.06 0 64.417 40.952 119.159 98.227 139.946 15.871 5.734 32.922 9.062 50.772 9.062 7.435 0 14.736-.559 21.853-1.633.762-.096 1.484-.321 2.251-.451 20.966-3.432 40.528-11.17 57.596-22.392 23.571-15.496 42.378-37.464 54.081-63.389 8.424-18.701 13.222-39.326 13.222-61.144-.001-13.168-1.726-25.935-4.945-38.108zm-66.209 115.963c-14.194 14.189-31.581 23.877-50.54 28.735-6.501 1.626-13.258 2.51-20.067 2.966-.971.061-1.881.23-2.845.241-1.476.072-2.916.298-4.396.298-4.044 0-8.062-.26-12.034-.688-24.859-2.698-47.885-13.609-65.823-31.552-20.794-20.793-32.258-48.454-32.258-77.854 0-2.328.198-4.599.334-6.896 1.659-26.815 12.766-51.821 31.924-70.969 2.383-2.372 4.875-4.595 7.421-6.736l.016-.013c19.75-16.48 44.379-25.5 70.421-25.5 4.758 0 9.438.327 14.051.929 14.462 1.872 28.247 6.572 40.743 13.759.136.083.286.184.409.279 8.15 4.745 15.798 10.447 22.646 17.282 1.608 1.621 3.067 3.334 4.549 5.031l.167.184c3.025 3.447 5.729 7.142 8.292 10.888 1.629 2.442 3.264 4.894 4.694 7.431 8.845 15.449 13.851 32.852 14.386 51.07.038 1.088.152 2.147.152 3.261-.002 29.4-11.445 57.061-32.242 77.854z"/></svg>