<svg version="1" xmlns="http://www.w3.org/2000/svg" width="260" height="301" viewBox="0 0 260.644 301.835" enable-background="new 0 0 260.644 301.835"><path fill="#eee" d="M256.317 138.176c-4.76-18.067-13.292-34.604-24.729-48.707l7.494-7.49c5.312-5.314 5.312-13.931 0-19.241-2.916-2.921-6.805-4.072-10.609-3.789-3.144.223-6.249 1.396-8.629 3.789l-7.489 7.487c-7.944-6.433-16.688-11.854-26.007-16.292-8.412-3.985-17.275-7.167-26.535-9.332l-.271-.032c-4.013-.933-8.052-1.736-12.213-2.286v-8.256h6.017c9.392 0 17.009-7.618 17.009-17.032 0-9.38-7.617-16.994-17.009-16.994h-47.084c-1.499 0-2.936.253-4.339.609l-.017.025c-7.282 1.926-12.65 8.497-12.65 16.359 0 9.414 7.618 17.032 17.006 17.032h7.052v8.256c-43.809 5.715-80.659 33.232-99.584 71.238-3.778 7.572-6.903 15.521-9.144 23.823-2.972 10.895-4.586 22.326-4.586 34.164 0 56.342 35.818 104.221 85.912 122.402 13.882 5.016 28.796 7.926 44.408 7.926 6.503 0 12.889-.489 19.112-1.429.667-.084 1.299-.281 1.97-.394 18.337-3.002 35.447-9.771 50.375-19.585 20.617-13.554 37.065-32.768 47.302-55.442 7.367-16.356 11.564-34.396 11.564-53.479.001-11.517-1.508-22.683-4.326-33.33zm-57.908 101.426c-12.415 12.411-27.622 20.884-44.204 25.133-5.686 1.422-11.595 2.194-17.552 2.594-.85.053-1.645.201-2.488.211-1.29.063-2.551.261-3.845.261-3.537 0-7.053-.228-10.525-.603-21.743-2.358-41.883-11.903-57.572-27.596-18.188-18.187-28.214-42.38-28.214-68.095 0-2.036.174-4.021.292-6.032 1.452-23.453 11.165-45.325 27.922-62.071 2.084-2.075 4.265-4.021 6.491-5.892l.014-.013c17.273-14.413 38.815-22.303 61.593-22.303 4.161 0 8.256.285 12.29.812 12.648 1.638 24.705 5.749 35.635 12.034l.358.244c7.128 4.15 13.816 9.138 19.806 15.116 1.407 1.417 2.684 2.916 3.979 4.4l.146.16c2.646 3.015 5.011 6.248 7.252 9.523 1.426 2.136 2.855 4.28 4.106 6.499 7.736 13.513 12.114 28.733 12.582 44.668.034.952.134 1.878.134 2.853-.001 25.717-10.01 49.91-28.2 68.097z"/></svg>