<?xml version="1.0" encoding="utf-8"?>
<!-- Generator: Adobe Illustrator 15.0.0, SVG Export Plug-In . SVG Version: 6.00 Build 0)  -->
<!DOCTYPE svg PUBLIC "-//W3C//DTD SVG 1.0//EN" "http://www.w3.org/TR/2001/REC-SVG-20010904/DTD/svg10.dtd">
<svg version="1.0" xmlns="http://www.w3.org/2000/svg" xmlns:xlink="http://www.w3.org/1999/xlink" x="0px" y="0px"
	 width="260" height="301" viewBox="0 0 260.644 301.835" enable-background="new 0 0 260.644 301.835"
	 xml:space="preserve">
<g>
	<path fill="#eee"  d="M256.317,138.176c-4.76-18.067-13.292-34.604-24.729-48.707l7.494-7.49c5.312-5.314,5.312-13.931,0-19.241
		c-2.916-2.921-6.805-4.072-10.609-3.789c-3.144,0.223-6.249,1.396-8.629,3.789l-7.489,7.487
		c-7.944-6.433-16.688-11.854-26.007-16.292c-8.412-3.985-17.275-7.167-26.535-9.332c-0.078-0.014-0.179-0.014-0.271-0.032
		c-4.013-0.933-8.052-1.736-12.213-2.286v-6.979v-0.134v-1.143h6.017c9.392,0,17.009-7.618,17.009-17.032
		c0-9.38-7.617-16.994-17.009-16.994h-6.017h-34.015h-7.052c-1.499,0-2.936,0.253-4.339,0.609c0,0-0.008,0.025-0.017,0.025
		c-7.282,1.926-12.65,8.497-12.65,16.359c0,9.414,7.618,17.032,17.006,17.032h7.052v8.256
		c-43.809,5.715-80.659,33.232-99.584,71.238c-3.778,7.572-6.903,15.521-9.144,23.823C1.614,148.238,0,159.669,0,171.507
		c0,56.342,35.818,104.221,85.912,122.402c13.882,5.016,28.796,7.926,44.408,7.926c6.503,0,12.889-0.489,19.112-1.429
		c0.667-0.084,1.299-0.281,1.97-0.394c18.337-3.002,35.447-9.771,50.375-19.585c20.617-13.554,37.065-32.768,47.302-55.442
		c7.367-16.356,11.564-34.396,11.564-53.479C260.644,159.989,259.135,148.823,256.317,138.176z M198.409,239.602
		c-12.415,12.411-27.622,20.884-44.204,25.133c-5.686,1.422-11.595,2.194-17.552,2.594c-0.85,0.053-1.645,0.201-2.488,0.211
		c-1.29,0.063-2.551,0.261-3.845,0.261c-3.537,0-7.053-0.228-10.525-0.603c-21.743-2.358-41.883-11.903-57.572-27.596
		c-18.188-18.187-28.214-42.38-28.214-68.095c0-2.036,0.174-4.021,0.292-6.032c1.452-23.453,11.165-45.325,27.922-62.071
		c2.084-2.075,4.265-4.021,6.491-5.892l0.014-0.013c17.273-14.413,38.815-22.303,61.593-22.303c4.161,0,8.256,0.285,12.29,0.812
		c12.648,1.638,24.705,5.749,35.635,12.034c0.119,0.072,0.25,0.162,0.358,0.244c7.128,4.15,13.816,9.138,19.806,15.116
		c1.407,1.417,2.684,2.916,3.979,4.4c0.047,0.046,0.09,0.104,0.146,0.16c2.646,3.015,5.011,6.248,7.252,9.523
		c1.426,2.136,2.855,4.28,4.106,6.499c7.736,13.513,12.114,28.733,12.582,44.668c0.034,0.952,0.134,1.878,0.134,2.853
		C226.608,197.222,216.599,221.415,198.409,239.602z"/>
</g>
</svg>
