<?xml version="1.0" encoding="utf-8"?>
<!-- Generator: Adobe Illustrator 15.0.0, SVG Export Plug-In . SVG Version: 6.00 Build 0)  -->
<!DOCTYPE svg PUBLIC "-//W3C//DTD SVG 1.0//EN" "http://www.w3.org/TR/2001/REC-SVG-20010904/DTD/svg10.dtd">
<svg version="1.0" id="Layer_1" xmlns="http://www.w3.org/2000/svg" xmlns:xlink="http://www.w3.org/1999/xlink" x="0px" y="0px"
	 width="77.082px" height="77.082px" viewBox="0 0 77.082 77.082" enable-background="new 0 0 77.082 77.082" xml:space="preserve">
<g>
	<path fill-rule="evenodd" clip-rule="evenodd" d="M65.79,11.291C59.667,5.321,51.919,0.974,40.798,0c-1.505,0-3.011,0-4.516,0
		C25.147,0.908,17.582,5.387,11.292,11.141C5.457,17.451,0.917,25.055,0,36.282c0,1.505,0,3.012,0,4.517
		c0.974,11.12,5.321,18.867,11.292,24.99c6.116,5.978,13.873,10.316,24.991,11.293c1.505,0,3.011,0,4.516,0
		c11.124-0.971,18.87-5.319,24.991-11.293c5.973-6.121,10.321-13.866,11.292-24.99c0-1.505,0-3.011,0-4.517
		C76.106,25.164,71.767,17.408,65.79,11.291z M67.446,50.284c-1.485,3.725-3.811,6.733-6.172,9.334
		c-5.199,5.725-11.983,9.263-21.077,9.935c-9.562,0.708-17.493-3.293-22.733-8.128c-5.575-5.146-9.241-11.627-9.937-21.077
		c-0.737-10.03,3.323-17.483,8.13-22.733c2.399-2.621,5.082-4.89,8.732-6.774c3.486-1.801,7.793-2.986,12.495-3.312
		c9.774-0.677,17.85,3.659,22.885,8.281c5.102,4.683,9.352,12.003,9.936,21.076C70.03,41.933,68.921,46.586,67.446,50.284z"/>
	<path fill-rule="evenodd" clip-rule="evenodd" d="M27.701,33.723c3.54,1.512,7.781-1.902,6.022-6.021
		c-0.421-0.988-2.194-2.507-4.215-2.409c-2.349,0.115-3.606,1.428-4.065,2.71C24.342,31.079,26.312,33.13,27.701,33.723z"/>
	<path fill-rule="evenodd" clip-rule="evenodd" d="M49.38,33.723c0.948-0.404,1.967-1.611,2.259-2.408
		c1.223-3.351-1.656-6.174-4.367-6.022c-2.949,0.166-4.755,2.613-4.215,5.419C43.556,33.302,46.739,34.851,49.38,33.723z"/>
	<path fill-rule="evenodd" clip-rule="evenodd" d="M58.866,38.541c-2.617,0.13-2.54,2.607-3.162,4.817
		c-2.244,7.976-11.567,15.704-22.583,12.193c-6.03-1.921-10.226-6.848-11.743-12.345c-0.649-2.353-0.728-5.088-3.914-4.516
		c-3.365,0.604-2.323,3.973-1.506,6.624c1.273,4.13,3.493,7.734,5.872,10.087c3.419,3.383,8.58,6.344,14.603,6.776
		c8.623,0.617,14.634-2.591,18.969-6.926c1.932-1.932,3.045-3.726,4.367-6.474c0.849-1.765,2.854-6.303,2.106-8.431
		C61.493,39.255,59.978,38.485,58.866,38.541z"/>
</g>
</svg>
